<svg id="Calque_1" data-name="Calque 1" xmlns="http://www.w3.org/2000/svg" viewBox="0 0 305.86 64.2"><defs><style>.cls-1{fill:#4e6124;}</style></defs><title>logo-konapi</title><path class="cls-1" d="M30,84.53c.16-3.23.3-6.5.43-9.83s.19-6.71.19-10.14V51.15q0-5.15-.19-10.1c-.13-3.3-.27-6.66-.43-10.1.68.11,1.33.2,1.95.28a15.95,15.95,0,0,0,3.74,0c.63-.08,1.28-.17,2-.28-.15,3.44-.3,6.8-.43,10.1S37,47.72,37,51.15v4.29c0,.42.16.62.47.62s.57-.23,1.09-.7c1.82-1.56,3.73-3.32,5.73-5.3s4-4,6-6.16,4-4.3,6-6.51S60.19,33,62,31c.57.11,1.12.2,1.64.28a10.23,10.23,0,0,0,1.56.11,14.66,14.66,0,0,0,1.87-.11c.62-.08,1.25-.17,1.87-.28q-2.73,2.34-6.16,5.54T55.89,43q-3.47,3.36-6.63,6.59c-2.1,2.16-3.86,4-5.26,5.65q6.31,7.09,12.75,14.47T69.81,84.53a16.73,16.73,0,0,0-2.34-.16H63a14.3,14.3,0,0,0-2.14.16Q58,81.32,54.64,77.2T48,69.2q-3.23-3.86-5.85-6.94c-1.74-2-3-3.49-3.86-4.33-.41-.41-.72-.62-.93-.62s-.39.16-.39.47v6.78q0,5.14.19,10.14c.13,3.33.28,6.6.43,9.83-1.19-.11-2.47-.16-3.82-.16S31.16,84.42,30,84.53Z" transform="translate(-29.96 -21.34)"/><path class="cls-1" d="M71,57.86A30.72,30.72,0,0,1,73.12,46a24.63,24.63,0,0,1,6-8.77,25.86,25.86,0,0,1,9.24-5.46,38.23,38.23,0,0,1,23.62,0,25.86,25.86,0,0,1,9.24,5.46,24.63,24.63,0,0,1,6,8.77,30.72,30.72,0,0,1,2.15,11.82,30.66,30.66,0,0,1-2.15,11.81,24.54,24.54,0,0,1-6,8.77A24.26,24.26,0,0,1,112,83.78a40.5,40.5,0,0,1-23.62,0,24.26,24.26,0,0,1-9.24-5.34,24.54,24.54,0,0,1-6-8.77A30.67,30.67,0,0,1,71,57.86Zm50.76,0a33.94,33.94,0,0,0-1.64-11.19,21.18,21.18,0,0,0-4.56-7.8,18.2,18.2,0,0,0-6.86-4.56,25.15,25.15,0,0,0-17,0,18.28,18.28,0,0,0-6.86,4.56,21.18,21.18,0,0,0-4.56,7.8,34.2,34.2,0,0,0-1.64,11.19,34.29,34.29,0,0,0,1.64,11.19,21.21,21.21,0,0,0,4.56,7.79,18.18,18.18,0,0,0,6.86,4.57,25.15,25.15,0,0,0,17,0,18.11,18.11,0,0,0,6.86-4.57,21.21,21.21,0,0,0,4.56-7.79A34,34,0,0,0,121.74,57.86Z" transform="translate(-29.96 -21.34)"/><path class="cls-1" d="M165.1,64.29Q155,53.41,144.82,42.65q-.07,2.19-.15,5.85c-.06,2.44-.08,5.77-.08,10,0,1.09,0,2.44,0,4.06s.05,3.3.08,5.06.06,3.57.11,5.39.11,3.5.16,5.06.1,2.93.16,4.1.1,2,.15,2.38a20.9,20.9,0,0,0-2.73-.16,23.35,23.35,0,0,0-2.88.16c.1-.52.22-1.49.35-2.89s.24-3.08.35-5,.22-4.07.35-6.35.23-4.58.31-6.87.14-4.52.2-6.7.07-4.14.07-5.85q0-7.48,0-12.87c0-3.58-.09-6.26-.19-8h1.25L152.5,41q5.43,5.89,10.76,11.62T173.4,63.43q4.8,5.12,8.39,8.7V61.52q0-8.19-.12-15.94T181.16,31a10.71,10.71,0,0,0,2.65.39,10.34,10.34,0,0,0,2.5-.39c-.11,1.15-.22,2.86-.35,5.15s-.26,4.73-.39,7.33-.25,5.15-.35,7.64-.16,4.5-.16,6v4.68c0,1.76,0,3.61,0,5.53s.05,3.86.08,5.81,0,3.77.07,5.46,0,3.16,0,4.41v2.57H184.2Q175.23,75.17,165.1,64.29Z" transform="translate(-29.96 -21.34)"/><path class="cls-1" d="M242.61,84.53a13.89,13.89,0,0,0-2.07-.16h-4.13a13.89,13.89,0,0,0-2.07.16c-.36-1.2-.85-2.64-1.48-4.33s-1.31-3.46-2.07-5.3-1.52-3.72-2.29-5.62-1.51-3.7-2.19-5.42q-2.49-.07-5.07-.12c-1.71,0-3.43,0-5.14,0s-3.2,0-4.76,0l-4.76.12q-2.49,6.09-4.52,11.58t-3,9.09a23.63,23.63,0,0,0-2.89-.16,23.35,23.35,0,0,0-2.88.16q6.31-13.65,12.32-27.14t12.09-27.45h1.48c1.24,3,2.6,6.28,4.05,9.79s2.94,7.05,4.45,10.64,3,7.15,4.52,10.68,2.92,6.83,4.25,9.87,2.52,5.76,3.59,8.15S241.93,83.28,242.61,84.53ZM208.06,60.27c1.36,0,2.76,0,4.22.08s2.85.08,4.21.08,2.91,0,4.36,0,2.91-.06,4.37-.12l-8.66-19.8Z" transform="translate(-29.96 -21.34)"/><path class="cls-1" d="M251.58,51.15q0-5.15-.2-10.1c-.13-3.3-.27-6.66-.43-10.1,1.25.11,2.51.2,3.78.28s2.54.11,3.79.11c.62,0,1.37,0,2.26-.07s1.78-.09,2.69-.12,1.78-.07,2.61-.12,1.53-.08,2.11-.08c.78,0,1.74,0,2.88.08a23.48,23.48,0,0,1,3.63.47,20.57,20.57,0,0,1,3.78,1.17,10.65,10.65,0,0,1,3.39,2.26,11.24,11.24,0,0,1,2.46,3.71,14.24,14.24,0,0,1,.93,5.49A14.36,14.36,0,0,1,283,52.48a16.14,16.14,0,0,1-5.46,5,21.59,21.59,0,0,1-6.86,2.41,38.08,38.08,0,0,1-6.43.63c-1.2,0-2.29,0-3.28,0s-2-.09-3-.2v4.29q0,5.14.2,10.14c.12,3.33.27,6.6.42,9.83-1.19-.11-2.47-.16-3.82-.16s-2.62,0-3.82.16c.16-3.23.3-6.5.43-9.83s.2-6.71.2-10.14ZM258,57a23.88,23.88,0,0,0,5.54.62,24.32,24.32,0,0,0,5-.54,13.53,13.53,0,0,0,4.72-2,11,11,0,0,0,3.5-4,13.67,13.67,0,0,0,1.37-6.51,13.49,13.49,0,0,0-.94-5.46,7.64,7.64,0,0,0-2.61-3.27,10.08,10.08,0,0,0-4.09-1.6,31.09,31.09,0,0,0-5.46-.43h-7Z" transform="translate(-29.96 -21.34)"/><path class="cls-1" d="M308,62.61l-2.3-3.86c-1-1.68-2.14-3.56-3.36-5.61l-3.86-6.47-3.86-6.47c-1.22-2.06-2.33-3.9-3.31-5.54S289.53,31.79,289,31c.72.11,1.44.2,2.14.28a21,21,0,0,0,4.29,0c.7-.08,1.42-.17,2.14-.28q3.51,6.79,7.14,13.34t7.68,13.64c1.2-1.87,2.44-3.92,3.74-6.16s2.6-4.52,3.9-6.86c2.29-4.12,2.35-4.82,3.75-7a40.42,40.42,0,0,1,4.08-5.45c1.48-1.18,2.06-1.24,2.31-1.07,1.25.89-3.34,9.4-3.67,9.91q-3,4.61-5.22,8.34c-1.51,2.5-2.83,4.75-4,6.75s-2.13,3.81-3,5.42q0,2.88,0,6.16t.12,6.43q.08,3.15.19,5.85c.08,1.79.17,3.23.27,4.33-1.19-.11-2.47-.16-3.82-.16s-2.62,0-3.82.16c.31-2.71.5-6,.55-9.83S308,66.82,308,62.61Z" transform="translate(-29.96 -21.34)"/><path class="cls-1" d="M309.2,65.4c-.09-.06.09-.43.23-.75a8.59,8.59,0,0,0,.63-3l.4-.5.55-2.5.32-.17.62-2.15.41-.26A9.34,9.34,0,0,1,312.5,55c.14-.66.28-.87.46-1a1,1,0,0,1,.23-.12,6.11,6.11,0,0,1,.16-1.17c.17-.8.34-.9.44-.91s.15.07.23,0,.14-.59.19-1a2.94,2.94,0,0,1,.54-1.3H315a7.9,7.9,0,0,1,.38-1.22,7.81,7.81,0,0,1,.5-1,.26.26,0,0,1,.22,0c.08,0,.09.11.12.12a13,13,0,0,0,.37-1.27c0-.06.36-1,.66-1,.13,0,.15.19.25.19s.21-.63.49-1.36c.19-.51.53-1.11.74-1.07s.14.23.22.23.14-.62.44-1.31c.18-.4.49-.9.71-.85s.15.23.24.22.19-.62.46-1.31.69-1.3.92-1.24.13.23.21.23.16-.57.42-1.41a3,3,0,0,1,.3-.63c.14-.24.25-.41.39-.41s.3.43.44.41.12-.31.23-.74a5.29,5.29,0,0,1,.52-1.2c.24-.45.27-.39.42-.71s.22-.31.31-.47.07-.12.13-.12.05.05.1.11.08.06.25.17.21.15.25.14.2-.24.24-.37.2-.37.56-1c.22-.39.41-.68.54-.87a5.9,5.9,0,0,1,.42-.56c.26-.34.42-.52.52-.49s.06.06.13.15.11.19.14.2.31-.49.31-.49A12.63,12.63,0,0,1,330.33,28c.49-.64.08-.12,1.88-2.56,1-1.38,1.31-1.76,1.72-2.26.75-.91,1.65-2,1.85-1.87s-.28,1.18-.56,1.81c-.37.85-.58,1.14-1.53,2.9-.52,1-.7,1.32-.79,1.51a17.07,17.07,0,0,0-.82,1.84c-.35,1-.31,1.18-.6,1.78-.16.33-.24.7-.43,1-.07.11-.17.26-.12.34s.42-.08.56,0,.06.31-.24,1a8.44,8.44,0,0,1-.64,1.31c-.39.61-.7.87-.61,1s.72-.14.88.07-.1.86-.5,1.21c-.1.1-.3.23-.31.44s.05.17,0,.29a.69.69,0,0,1-.18.32c-.36.42-.21.27-.35.42-.51.53-.73.65-.69.75s.44.09.46.09c.2,0,.25-.08.3,0s0,.92-.57,1.58-1,.84-1,1,.49,0,.61.16c0,0,.06.11,0,.37a2.78,2.78,0,0,1-.63,1,3.08,3.08,0,0,1-.41.44c-.31.28-.54.4-.51.49s.43,0,.53.15,0,.26-.2.55a4.92,4.92,0,0,1-.68.86c-.7.67-1.17.89-1.11,1s.63,0,.74.23,0,.3-.25.56a5.47,5.47,0,0,1-1,1.13c-.7.54-1.19.7-1.15.88s.54.07.63.28-.91,1.14-1.24,1.39c-.67.5-1.2.76-1.14.94s.57.06.64.27c0,.05,0,.17-.46.63a8.16,8.16,0,0,1-1.19.92c-.34.21-.59.32-.58.49s.22.16.26.31c.1.38-1,1-1.11,1.06-.56.31-1,.46-1,.69s.09.11.11.22-.23.39-.65.66c-.62.39-1.43.83-1.45,1.14a.39.39,0,0,1,0,.12.58.58,0,0,1-.27.3,9.93,9.93,0,0,1-1,.53c-.59.23-1,.31-1,.51s.06.13,0,.24-.22.23-.28.26c-.36.16-.7.37-1.07.52-.61.25-.82.34-.91.56s0,.13-.06.28a1.48,1.48,0,0,1-.6.72,4.11,4.11,0,0,0-.76.84c-.07.12-.18.29-.32.49C310,64.87,309.34,65.5,309.2,65.4Z" transform="translate(-29.96 -21.34)"/></svg>