<svg id="Calque_1" data-name="Calque 1" xmlns="http://www.w3.org/2000/svg" viewBox="0 0 305.86 64.2"><defs><style>.cls-1{fill:#fff;}</style></defs><title>logo-konapi-white</title><path class="cls-1" d="M33.6,95.71c.15-3.23.3-6.5.43-9.83s.19-6.7.19-10.14V62.33c0-3.43-.06-6.79-.19-10.1s-.28-6.66-.43-10.09l1.95.27a14.63,14.63,0,0,0,3.74,0l2-.27q-.24,5.14-.43,10.09c-.13,3.31-.19,6.67-.19,10.1v4.29c0,.42.15.63.46.63s.57-.24,1.09-.71C44,65,45.9,63.22,47.91,61.24s4-4,6-6.16,4-4.3,6-6.51,3.88-4.35,5.7-6.43l1.63.27a10.25,10.25,0,0,0,1.56.12,14.83,14.83,0,0,0,1.88-.12l1.87-.27c-1.82,1.56-3.88,3.4-6.16,5.53s-4.59,4.32-6.9,6.55S55,58.66,52.9,60.81s-3.86,4-5.27,5.66q6.32,7.09,12.75,14.46T73.44,95.71a16.69,16.69,0,0,0-2.33-.16H66.62a14.21,14.21,0,0,0-2.14.16q-2.81-3.19-6.2-7.33t-6.63-8L45.8,73.44q-2.61-3.07-3.86-4.32-.63-.63-.93-.63c-.27,0-.39.16-.39.47v6.78q0,5.16.19,10.14c.13,3.33.27,6.6.43,9.83-1.2-.11-2.47-.16-3.82-.16S34.79,95.6,33.6,95.71Z" transform="translate(-33.6 -32.52)"/><path class="cls-1" d="M74.61,69a30.72,30.72,0,0,1,2.15-11.82,24.73,24.73,0,0,1,6-8.77A26,26,0,0,1,92,43a38.26,38.26,0,0,1,23.63,0,25.86,25.86,0,0,1,9.24,5.46,24.63,24.63,0,0,1,6,8.77A30.91,30.91,0,0,1,133,69a30.82,30.82,0,0,1-2.14,11.81A24.06,24.06,0,0,1,115.63,95,40.76,40.76,0,0,1,92,95,24,24,0,0,1,76.76,80.85,30.63,30.63,0,0,1,74.61,69Zm50.77,0a34.2,34.2,0,0,0-1.64-11.19,21.26,21.26,0,0,0-4.56-7.8,18.28,18.28,0,0,0-6.86-4.56A24,24,0,0,0,103.78,44a23.74,23.74,0,0,0-8.46,1.48,18.2,18.2,0,0,0-6.86,4.56,21.41,21.41,0,0,0-4.57,7.8A34.22,34.22,0,0,0,82.26,69a34.3,34.3,0,0,0,1.63,11.19A21.5,21.5,0,0,0,88.46,88a18.2,18.2,0,0,0,6.86,4.56,23.74,23.74,0,0,0,8.46,1.48,24,24,0,0,0,8.54-1.48A18.28,18.28,0,0,0,119.18,88a21.34,21.34,0,0,0,4.56-7.8A34.29,34.29,0,0,0,125.38,69Z" transform="translate(-33.6 -32.52)"/><path class="cls-1" d="M168.73,75.47Q158.6,64.6,148.46,53.83c-.05,1.46-.11,3.41-.16,5.85s-.07,5.77-.07,10c0,1.09,0,2.45,0,4.06s.06,3.3.08,5.07.07,3.56.12,5.38.1,3.51.16,5.07.1,2.92.15,4.09.11,2,.16,2.38a20.9,20.9,0,0,0-2.73-.16,23.63,23.63,0,0,0-2.89.16c.11-.52.22-1.48.35-2.89s.25-3.08.35-5l.36-6.35q.19-3.43.31-6.86t.19-6.71c0-2.18.08-4.13.08-5.85q0-7.49,0-12.87t-.19-8H146q4.75,5.15,10.18,11T166.9,63.78q5.34,5.73,10.14,10.83t8.38,8.7V72.7q0-8.17-.12-15.94t-.5-14.62a11.21,11.21,0,0,0,2.65.39,10.87,10.87,0,0,0,2.49-.39c-.1,1.14-.22,2.86-.35,5.14s-.26,4.73-.39,7.33-.24,5.15-.35,7.64-.15,4.5-.15,6v4.68c0,1.77,0,3.61,0,5.53s.06,3.86.08,5.81.05,3.77.08,5.46,0,3.16,0,4.41v2.57h-1.09Q178.87,86.36,168.73,75.47Z" transform="translate(-33.6 -32.52)"/><path class="cls-1" d="M246.25,95.71a13.89,13.89,0,0,0-2.07-.16h-4.13a13.89,13.89,0,0,0-2.07.16c-.36-1.2-.86-2.64-1.48-4.33s-1.32-3.46-2.07-5.3-1.52-3.72-2.3-5.62S230.62,76.76,230,75c-1.67-.05-3.36-.09-5.07-.11s-3.43,0-5.15,0-3.19,0-4.75,0-3.15.06-4.76.11q-2.49,6.09-4.52,11.58t-3,9.09a23.35,23.35,0,0,0-2.88-.16,23.63,23.63,0,0,0-2.89.16q6.33-13.65,12.33-27.14t12.08-27.45h1.48q1.88,4.53,4.06,9.79c1.45,3.51,2.94,7.06,4.44,10.64s3,7.15,4.53,10.69,2.92,6.82,4.25,9.86,2.52,5.76,3.58,8.15S245.57,94.46,246.25,95.71ZM211.7,71.46c1.35,0,2.76,0,4.21.07s2.86.08,4.21.08,2.91,0,4.37,0,2.91-.06,4.37-.11L220.2,51.65Z" transform="translate(-33.6 -32.52)"/><path class="cls-1" d="M255.21,62.33c0-3.43-.06-6.79-.19-10.1s-.28-6.66-.43-10.09q1.88.15,3.78.27t3.78.12c.63,0,1.38,0,2.26-.08s1.78-.09,2.7-.12,1.77-.06,2.61-.12,1.53-.07,2.1-.07c.78,0,1.74,0,2.89.07a24.47,24.47,0,0,1,3.62.47,20.43,20.43,0,0,1,3.79,1.17,10.74,10.74,0,0,1,5.84,6,14,14,0,0,1,.94,5.49,14.34,14.34,0,0,1-2.22,8.35,16.14,16.14,0,0,1-5.46,5,21.7,21.7,0,0,1-6.86,2.42,39.14,39.14,0,0,1-6.44.62c-1.19,0-2.28,0-3.27,0s-2-.09-3-.19v4.28q0,5.16.19,10.14c.13,3.33.27,6.6.43,9.83-1.2-.11-2.47-.16-3.82-.16s-2.63,0-3.82.16c.15-3.23.3-6.5.43-9.83s.19-6.7.19-10.14Zm6.4,5.85a23.79,23.79,0,0,0,5.53.63,24.27,24.27,0,0,0,5-.55,13.27,13.27,0,0,0,4.72-2,10.91,10.91,0,0,0,3.51-4,13.67,13.67,0,0,0,1.37-6.51,13.66,13.66,0,0,0-.94-5.46,7.72,7.72,0,0,0-2.61-3.27,10.27,10.27,0,0,0-4.1-1.6,31,31,0,0,0-5.45-.43h-7Z" transform="translate(-33.6 -32.52)"/><path class="cls-1" d="M311.59,73.8c-.52-.89-1.28-2.17-2.3-3.86s-2.13-3.56-3.35-5.62l-3.86-6.47-3.86-6.47c-1.22-2.06-2.33-3.9-3.32-5.54s-1.74-2.87-2.26-3.7l2.15.27a18.79,18.79,0,0,0,2.14.12,19.1,19.1,0,0,0,2.15-.12l2.14-.27q3.51,6.78,7.14,13.33T316,69.12c1.19-1.87,2.44-3.93,3.74-6.16s2.6-4.53,3.9-6.87C326,52,326,51.27,327.42,49a39.5,39.5,0,0,1,4.09-5.45c1.48-1.18,2.06-1.24,2.31-1.06,1.24.88-3.34,9.39-3.67,9.9q-3,4.6-5.22,8.34t-4,6.75q-1.71,3-3,5.42,0,2.88,0,6.16c0,2.18.07,4.33.12,6.43s.12,4.06.2,5.85.17,3.24.27,4.33c-1.2-.11-2.47-.16-3.82-.16s-2.63,0-3.82.16q.46-4,.54-9.83T311.59,73.8Z" transform="translate(-33.6 -32.52)"/><path class="cls-1" d="M312.84,76.58c-.09-.06.09-.43.22-.75a8.55,8.55,0,0,0,.64-3l.39-.5.56-2.5.32-.17.62-2.15.4-.25a7.25,7.25,0,0,1,.15-1.06c.14-.66.27-.87.46-1a.75.75,0,0,1,.22-.11A8.24,8.24,0,0,1,317,63.9c.18-.8.35-.9.44-.91s.16.07.24,0,.13-.59.19-1a2.86,2.86,0,0,1,.54-1.3h.27a9,9,0,0,1,.37-1.22,7.77,7.77,0,0,1,.51-1,.25.25,0,0,1,.22,0c.08,0,.08.12.11.12a10.47,10.47,0,0,0,.37-1.27c0-.05.36-1,.67-1,.13,0,.15.19.24.19s.21-.63.49-1.36c.2-.51.53-1.11.75-1.07s.13.23.22.23.14-.62.44-1.31c.17-.4.49-.9.71-.85s.15.23.24.23.19-.63.45-1.32.69-1.3.93-1.24.13.23.21.23.15-.56.42-1.4a3,3,0,0,1,.3-.64c.14-.24.25-.41.38-.41s.31.43.45.41.11-.31.23-.74a5.28,5.28,0,0,1,.51-1.2c.25-.45.27-.39.43-.71a4.76,4.76,0,0,1,.31-.47s.07-.12.13-.12.05.05.1.11.08.06.25.17.21.15.25.14.19-.23.24-.37.2-.37.55-1c.23-.4.41-.69.54-.88s.2-.26.42-.56.43-.52.53-.49a.58.58,0,0,1,.12.15c.11.15.12.2.15.2s.31-.49.31-.49c.17-.5.48-.78,1.76-2.46.48-.64.08-.13,1.88-2.57,1-1.37,1.3-1.75,1.71-2.25.75-.92,1.65-2,1.86-1.88s-.28,1.18-.56,1.81c-.37.85-.58,1.14-1.53,2.9-.52,1-.7,1.33-.79,1.51a16.25,16.25,0,0,0-.83,1.84,17.06,17.06,0,0,1-.6,1.78c-.16.33-.23.7-.42,1-.07.11-.17.26-.12.34s.42-.08.56.05.06.3-.25,1a8.85,8.85,0,0,1-.63,1.3c-.39.62-.7.87-.62,1s.72-.14.88.07-.09.86-.49,1.21c-.11.1-.3.24-.31.44s0,.17,0,.3a.65.65,0,0,1-.19.31,4.09,4.09,0,0,1-.35.42c-.5.53-.72.65-.68.75s.44.09.46.09c.2,0,.25-.08.29,0s0,.91-.57,1.57-1,.84-1,1,.49,0,.62.16,0,.11,0,.37a2.78,2.78,0,0,1-.63,1,5.27,5.27,0,0,1-.41.45c-.31.28-.55.39-.52.48s.44,0,.54.15,0,.26-.2.55a5.56,5.56,0,0,1-.68.86c-.7.67-1.17.89-1.11,1s.62,0,.73.23,0,.31-.24.56a5.25,5.25,0,0,1-1.05,1.13c-.69.55-1.18.71-1.14.88s.54.07.63.29-.92,1.14-1.25,1.38c-.66.5-1.19.76-1.14.94s.58.07.65.28c0,0,0,.17-.47.63a8.12,8.12,0,0,1-1.18.91c-.35.21-.59.33-.58.49s.22.16.26.31c.09.38-1,1-1.11,1.06-.56.32-1.06.47-1,.69s.09.11.1.22-.22.39-.65.66c-.62.39-1.43.83-1.44,1.14a.43.43,0,0,1,0,.13.51.51,0,0,1-.27.29,8.52,8.52,0,0,1-1,.53c-.59.23-1,.31-1,.51s.06.13,0,.24-.21.23-.28.26c-.36.16-.7.37-1.06.52-.62.25-.82.34-.92.56s0,.13-.05.28a1.48,1.48,0,0,1-.6.72,4.11,4.11,0,0,0-.76.84,5.53,5.53,0,0,1-.32.49C313.67,76.05,313,76.68,312.84,76.58Z" transform="translate(-33.6 -32.52)"/></svg>