<svg id="Calque_1" data-name="Calque 1" xmlns="http://www.w3.org/2000/svg" viewBox="0 0 63.77 94.26"><defs><style>.cls-1{fill:#fff;}</style></defs><title>logo-onglet</title><path class="cls-1" d="M43.83,64.15,40.69,58.4Q38.62,54.62,36.13,50l-5.26-9.65C29,37,27.27,33.78,25.61,30.71s-3.17-5.82-4.52-8.26S18.72,18.17,18,16.93c1,.15,2,.29,2.92.4a23.24,23.24,0,0,0,2.92.18,23.48,23.48,0,0,0,2.92-.18c.95-.11,1.93-.25,2.92-.4Q34.49,27,39.42,36.82T49.88,57.17Q52.33,53,55,48t5.31-10.23c3.12-6.14,3.2-7.2,5.1-10.53A59.65,59.65,0,0,1,71,19.09c2-1.75,2.8-1.85,3.14-1.58,1.7,1.32-4.55,14-5,14.77q-4,6.87-7.12,12.45T56.57,54.79q-2.34,4.49-4,8.08c0,2.87,0,5.94.05,9.19s.09,6.46.16,9.6.16,6,.26,8.72.23,4.83.38,6.46c-1.63-.16-3.37-.23-5.21-.23s-3.57.07-5.2.23q.63-6,.74-14.66T43.83,64.15Z" transform="translate(-18.02 -2.58)"/><path class="cls-1" d="M45.53,68.31c-.13-.1.12-.65.3-1.12a14.06,14.06,0,0,0,.87-4.49l.54-.75L48,58.23l.43-.26.85-3.21.55-.38a12,12,0,0,1,.2-1.57c.19-1,.37-1.3.62-1.49a1.23,1.23,0,0,1,.31-.17,12.1,12.1,0,0,1,.22-1.76c.24-1.19.47-1.33.6-1.36s.21.11.32.07c.27-.09.19-.88.26-1.55a4.48,4.48,0,0,1,.74-1.94h.36A12.8,12.8,0,0,1,54,42.79a12.22,12.22,0,0,1,.69-1.55c.1-.06.21-.11.3-.06s.11.17.16.17a17.14,17.14,0,0,0,.5-1.9c0-.07.49-1.49.91-1.43.17,0,.2.28.33.27s.28-.93.67-2c.27-.76.72-1.65,1-1.59s.18.34.29.34.19-.92.6-1.95c.24-.59.67-1.34,1-1.27s.2.34.33.34.26-.94.62-2,.94-1.93,1.26-1.84.17.34.28.34.22-.84.58-2.1a4.7,4.7,0,0,1,.4-.95c.19-.35.34-.6.53-.6s.41.63.6.6.16-.46.32-1.1a8.06,8.06,0,0,1,.7-1.78c.33-.68.37-.59.57-1.06.11-.26.3-.47.43-.71,0-.05.1-.18.17-.17s.08.07.14.15.11.1.34.26.29.22.34.21.27-.35.33-.55.27-.55.76-1.52c.3-.59.55-1,.73-1.31s.26-.39.58-.83.57-.78.71-.72.08.08.17.21.16.3.2.3.42-.72.42-.72c.23-.75.66-1.18,2.4-3.69.66-.95.11-.18,2.56-3.82,1.38-2,1.77-2.62,2.33-3.36,1-1.36,2.25-3,2.53-2.81S81.35,4.36,81,5.3c-.5,1.26-.79,1.69-2.09,4.32-.7,1.43-.95,2-1.07,2.25a28.46,28.46,0,0,0-1.13,2.76,27.58,27.58,0,0,1-.81,2.65c-.22.49-.33,1-.59,1.5-.09.16-.23.39-.15.51s.57-.12.75.07.09.45-.33,1.52a13,13,0,0,1-.86,1.95c-.53.91-1,1.3-.84,1.51s1-.22,1.2.1-.13,1.28-.67,1.81a1,1,0,0,0-.43.65,2.08,2.08,0,0,1,0,.44,1,1,0,0,1-.25.46c-.49.64-.28.41-.48.64-.69.79-1,1-.93,1.12s.6.13.63.13c.26,0,.33-.12.4-.07s0,1.36-.78,2.35-1.4,1.25-1.31,1.46.67,0,.84.24c0,.06.08.17,0,.55a4.45,4.45,0,0,1-.86,1.43,7.16,7.16,0,0,1-.56.67c-.42.42-.74.59-.7.72s.59,0,.73.22,0,.39-.28.83a7.6,7.6,0,0,1-.92,1.28c-1,1-1.6,1.33-1.52,1.56s.86,0,1,.35c.08.19-.07.45-.34.83a7.71,7.71,0,0,1-1.42,1.69c-1,.81-1.62,1.05-1.56,1.31s.74.11.86.43c.2.52-1.25,1.7-1.7,2.07-.9.74-1.63,1.13-1.55,1.39s.78.1.88.41c0,.07,0,.26-.64,1a11.84,11.84,0,0,1-1.61,1.36c-.47.31-.81.48-.79.73s.3.24.36.47c.12.56-1.33,1.46-1.52,1.58-.76.47-1.43.69-1.41,1,0,.14.12.16.14.32s-.31.59-.89,1c-.84.58-1.94,1.23-2,1.69a.66.66,0,0,1,0,.2.8.8,0,0,1-.37.44A12.41,12.41,0,0,1,54,60c-.81.33-1.32.46-1.34.75,0,.13.08.2,0,.36a.63.63,0,0,1-.38.39c-.49.25-.95.56-1.45.78-.84.37-1.12.5-1.25.83-.06.17,0,.19-.07.42a2.2,2.2,0,0,1-.82,1.07,6.63,6.63,0,0,0-1,1.26,6.36,6.36,0,0,1-.44.73C46.65,67.52,45.71,68.46,45.53,68.31Z" transform="translate(-18.02 -2.58)"/></svg>